<?xml version="1.0" standalone="no"?>
<!DOCTYPE svg PUBLIC "-//W3C//DTD SVG 20010904//EN"
 "http://www.w3.org/TR/2001/REC-SVG-20010904/DTD/svg10.dtd">
<svg version="1.0" xmlns="http://www.w3.org/2000/svg"
 width="500.000000pt" height="500.000000pt" viewBox="0 0 500.000000 500.000000"
 preserveAspectRatio="xMidYMid meet">

<g transform="translate(0.000000,500.000000) scale(0.100000,-0.100000)"
fill="#000000" stroke="none">
<path d="M680 4341 c-47 -4 -99 -14 -116 -23 -51 -28 -91 -81 -104 -140 -8
-39 -10 -493 -8 -1703 l3 -1650 25 -43 c28 -49 96 -98 149 -109 20 -3 322 -7
671 -7 492 -1 645 2 678 12 55 17 110 66 136 122 21 44 21 58 26 1065 8 1418
4 2227 -9 2295 -16 76 -52 124 -120 157 l-56 28 -595 1 c-327 1 -633 -2 -680
-5z m214 -147 c9 -8 16 -25 16 -37 0 -12 6 -40 13 -62 10 -34 16 -40 42 -42
16 -1 31 -7 33 -13 8 -23 31 29 43 93 11 59 15 67 35 67 19 0 24 -7 30 -37 4
-21 15 -56 25 -78 14 -29 19 -65 19 -134 l0 -93 30 6 c17 3 44 9 60 12 47 10
35 -9 -16 -26 -25 -8 -46 -19 -46 -25 0 -5 -5 -19 -11 -30 -6 -12 -11 -86 -11
-180 -1 -101 -5 -159 -11 -158 -12 2 -9 -146 5 -318 35 -413 183 -916 396
-1342 41 -82 74 -156 74 -166 0 -9 5 -22 11 -28 5 -5 14 -39 19 -74 5 -37 16
-68 25 -75 8 -6 15 -17 15 -24 0 -13 49 -60 63 -60 4 0 7 -6 7 -14 0 -14 21
-26 47 -26 8 0 66 -25 129 -56 132 -64 128 -57 128 -209 1 -120 -15 -161 -74
-194 l-38 -21 -650 2 -650 3 -21 25 c-14 17 -20 39 -21 72 0 67 -20 201 -31
212 -5 6 -9 34 -9 64 0 36 -5 59 -16 70 -15 14 -15 16 2 23 40 15 73 60 84
117 6 31 14 64 17 72 4 8 7 26 9 40 5 66 16 174 25 255 23 208 37 1156 19
1330 -4 39 -8 59 -9 45 0 -14 -8 -115 -16 -225 -8 -110 -15 -211 -16 -225 -3
-43 -30 491 -30 585 0 96 9 170 19 160 8 -8 12 -26 25 -127 6 -49 15 -88 20
-88 4 0 8 71 7 158 -1 86 -1 173 0 192 1 19 -6 69 -16 110 -21 87 -25 373 -5
393 6 6 11 21 11 34 0 26 12 30 28 10 12 -14 27 -157 38 -367 7 -122 9 -176
13 -292 0 -21 6 -38 12 -38 7 0 9 12 5 35 -8 42 6 46 23 8 12 -26 13 -27 24
-8 9 14 11 103 9 315 -3 295 2 400 18 400 5 0 16 -7 24 -16z m996 -28 c0 -7
-7 -19 -15 -26 -12 -10 -18 -10 -30 0 -25 21 -18 40 15 40 19 0 30 -5 30 -14z
m120 -11 c0 -16 -6 -25 -15 -25 -9 0 -15 9 -15 25 0 16 6 25 15 25 9 0 15 -9
15 -25z m-60 -5 c0 -15 -7 -20 -27 -20 -25 0 -26 0 -8 20 10 11 22 20 27 20 4
0 8 -9 8 -20z m-490 -425 c6 -71 13 -146 16 -165 2 -19 6 -57 9 -85 2 -27 9
-80 15 -117 5 -37 10 -70 10 -73 0 -3 5 -3 10 0 6 4 8 27 4 58 -7 65 12 207
31 226 12 12 17 12 39 -2 14 -10 32 -17 41 -17 8 0 15 -7 15 -15 0 -8 4 -15 9
-15 18 0 70 -128 81 -200 7 -41 17 -90 22 -108 17 -56 10 -186 -12 -250 -12
-31 -26 -74 -32 -95 -19 -67 -54 -60 -82 16 -8 23 -26 73 -40 111 -15 38 -35
114 -46 169 -11 56 -23 103 -26 106 -14 13 21 -276 46 -374 12 -50 12 -80 -1
-40 -19 60 -79 327 -79 351 0 13 -5 24 -11 24 -5 0 -7 4 -4 10 3 5 1 54 -6
108 -11 92 -13 99 -40 115 -16 9 -29 21 -29 28 0 8 7 5 19 -5 19 -18 47 -14
36 5 -4 5 -1 9 6 9 8 0 8 4 -1 15 -7 8 -21 15 -32 15 -17 0 -19 5 -14 28 4 15
12 32 19 37 8 7 10 29 6 70 -4 33 -7 103 -7 155 0 124 13 80 28 -95z m-182
-38 c2 -12 -3 -17 -17 -17 -15 0 -21 6 -21 21 0 25 33 22 38 -4z m52 -7 c0
-11 -4 -20 -9 -20 -6 0 -9 9 -8 20 1 11 5 20 9 20 4 0 8 -9 8 -20z m30 11 c0
-6 -4 -12 -8 -15 -5 -3 -9 1 -9 9 0 8 4 15 9 15 4 0 8 -4 8 -9z m-777 -134 c3
-23 10 -87 16 -142 6 -55 13 -111 16 -125 2 -14 1 -52 -4 -85 -6 -40 -5 -64 2
-73 8 -10 7 -12 -4 -10 -11 2 -13 -8 -11 -44 2 -25 -2 -49 -8 -53 -6 -4 -9 -3
-8 2 4 14 -13 53 -23 53 -8 0 -12 -44 -13 -142 -1 -16 -4 -28 -8 -28 -10 0
-11 572 -2 659 7 58 8 61 24 46 10 -9 20 -35 23 -58z m647 -27 c0 -40 -4 -70
-10 -70 -5 0 -10 25 -10 55 0 47 -2 54 -17 49 -13 -4 -11 0 6 15 13 12 25 21
27 21 2 0 4 -31 4 -70z m133 52 c11 -11 13 -22 7 -32 -5 -9 -5 -19 2 -27 15
-19 2 -60 -22 -66 -23 -6 -70 27 -57 40 5 4 13 0 18 -10 12 -21 32 -22 48 -3
10 11 8 18 -9 34 -18 17 -19 20 -6 25 9 4 16 11 16 17 0 17 -31 24 -40 9 -5
-7 -13 -10 -17 -5 -4 4 1 14 11 22 25 18 30 18 49 -4z m-103 -205 c0 -9 -15
-14 -49 -15 -64 -1 -60 22 4 26 33 2 45 -1 45 -11z m47 -9 c-3 -8 -6 -5 -6 6
-1 11 2 17 5 13 3 -3 4 -12 1 -19z m63 7 c0 -8 -2 -15 -4 -15 -2 0 -6 7 -10
15 -3 8 -1 15 4 15 6 0 10 -7 10 -15z m60 -3 c0 -22 -42 -23 -48 -1 -3 11 -1
11 7 -1 9 -13 11 -13 11 3 0 9 7 17 15 17 8 0 15 -8 15 -18z m-118 -107 c0 -5
-5 -11 -11 -13 -6 -2 -11 4 -11 13 0 9 5 15 11 13 6 -2 11 -8 11 -13z m-775
-537 c-3 -7 -5 -2 -5 12 0 14 2 19 5 13 2 -7 2 -19 0 -25z m120 -75 c-3 -10
-5 -4 -5 12 0 17 2 24 5 18 2 -7 2 -21 0 -30z m-110 -315 c-1 -46 -3 -11 -3
77 0 88 2 125 3 83 2 -42 2 -114 0 -160z"/>
<path d="M981 3773 c-9 -6 -16 -16 -16 -22 0 -6 -4 -11 -9 -10 -15 1 -26 -24
-26 -63 0 -21 5 -38 11 -38 7 0 8 -7 4 -17 -12 -30 -14 -70 -6 -100 6 -24 8
-19 14 33 8 76 41 166 73 201 13 14 24 26 24 27 0 7 -57 -2 -69 -11z"/>
<path d="M986 3642 c-16 -30 -38 -152 -38 -212 0 -15 11 -33 28 -47 35 -27 50
-18 65 43 7 28 17 44 26 44 13 0 14 10 9 58 -9 75 -24 112 -46 112 -10 0 -20
8 -22 18 -3 13 -8 9 -22 -16z"/>
<path d="M895 2689 c-20 -63 27 -437 65 -515 25 -51 32 -57 55 -47 16 5 17 17
12 92 -8 121 -92 471 -117 486 -5 3 -12 -4 -15 -16z"/>
<path d="M1430 3560 c0 -5 5 -10 10 -10 6 0 10 5 10 10 0 6 -4 10 -10 10 -5 0
-10 -4 -10 -10z"/>
<path d="M3000 4328 c-69 -19 -141 -100 -140 -155 1 -10 7 -1 15 21 7 21 19
44 26 50 9 8 10 7 3 -9 -12 -27 -17 -3347 -5 -3400 5 -22 12 -49 16 -59 6 -13
5 -17 -3 -12 -10 6 -32 48 -45 86 -4 10 -6 8 -6 -6 -1 -34 60 -115 104 -138
39 -21 55 -21 709 -24 l668 -2 53 24 c29 13 62 38 75 55 52 74 50 0 48 1760
l-3 1636 -5 -1655 c-4 -1487 -7 -1659 -21 -1690 -9 -19 -24 -42 -34 -50 -17
-14 -17 -13 1 20 18 34 19 82 19 1720 0 927 -3 1701 -8 1720 -10 45 9 28 28
-26 8 -22 14 -31 15 -21 0 23 -26 75 -54 105 -53 59 -21 57 -751 59 -428 1
-683 -2 -705 -9z m1178 -5 c-32 -2 -86 -2 -120 0 -35 2 -9 3 57 3 66 0 94 -1
63 -3z m150 0 c-10 -2 -26 -2 -35 0 -10 3 -2 5 17 5 19 0 27 -2 18 -5z m-500
-419 c4 -30 -21 -48 -47 -34 -21 11 -28 40 -14 54 15 15 58 1 61 -20z m-168
-579 c0 -8 -4 -15 -10 -15 -5 0 -10 7 -10 15 0 8 5 15 10 15 6 0 10 -7 10 -15z
m72 -10 c4 -19 1 -25 -13 -25 -16 0 -17 3 -7 25 6 14 12 25 13 25 2 0 5 -11 7
-25z"/>
<path d="M2407 4309 c-16 -24 -17 -135 -15 -1817 3 -2019 -6 -1821 84 -1828
l49 -3 -49 9 c-92 17 -84 37 17 47 54 5 65 3 70 -11 5 -12 0 -20 -16 -26 -14
-5 -16 -9 -6 -9 8 -1 24 5 35 13 19 14 19 42 22 1407 1 899 6 1397 12 1403 14
14 13 513 0 521 -6 4 -10 65 -10 149 0 142 0 143 -25 154 -19 9 -23 8 -19 -2
4 -10 -11 -13 -60 -12 -50 1 -66 5 -69 16 -2 11 -8 8 -20 -11z"/>
<path d="M2848 3993 c-6 -317 -9 -529 -9 -708 -1 -384 12 -2390 15 -2405 2 -8
4 720 5 1618 0 897 -1 1632 -4 1632 -3 0 -6 -62 -7 -137z"/>
</g>
</svg>
